<?xml version="1.0" encoding="utf-8"?>
<!-- Generator: Adobe Illustrator 26.5.0, SVG Export Plug-In . SVG Version: 6.00 Build 0)  -->
<svg version="1.1" id="svg2" xmlns:inkscape="http://www.inkscape.org/namespaces/inkscape"
	 xmlns="http://www.w3.org/2000/svg" xmlns:xlink="http://www.w3.org/1999/xlink" x="0px" y="0px" viewBox="0 0 200 200"
	 enable-background="new 0 0 200 200" xml:space="preserve">
<rect fill="#FFFFFF" stroke="#000000" stroke-width="0.5" stroke-miterlimit="288" width="200" height="200"/>
<path fill="#FFFFFF" stroke="#000000" stroke-width="0.5" stroke-miterlimit="288" d="M100,100c0,55.1,44.6,99.9,99.7,100v-10.6
	c-49.3,0-89.4-40-89.4-89.4s40-89.4,89.4-89.4V0C144.6,0.1,100,44.9,100,100z"/>
<path fill="#FFFFFF" stroke="#000000" stroke-width="0.5" stroke-miterlimit="288" d="M100,100c55.1,0,99.9-44.6,100-99.7h-10.6
	c0,49.3-40,89.4-89.4,89.4s-89.4-40-89.4-89.4H0C0.1,55.4,44.9,100,100,100z"/>
<path fill="#FFFFFF" stroke="#000000" stroke-width="0.5" stroke-miterlimit="288" d="M100,100C100,44.9,55.4,0.1,0.3,0v10.6
	c49.3,0,89.4,40,89.4,89.4s-40,89.4-89.4,89.4V200C55.4,199.9,100,155.1,100,100z"/>
<path fill="#FFFFFF" stroke="#000000" stroke-width="0.5" stroke-miterlimit="288" d="M100,100c-55.1,0-99.9,44.6-100,99.7h10.6
	c0-49.3,40-89.4,89.4-89.4s89.4,40,89.4,89.4H200C199.9,144.6,155.1,100,100,100z"/>
</svg>
